<mxfile host="app.diagrams.net" modified="2022-04-28T16:16:52.024Z" agent="5.0 (Windows NT 10.0; Win64; x64) AppleWebKit/537.36 (KHTML, like Gecko) Chrome/100.0.4896.127 Safari/537.36" etag="kadrz5iqAafUEc38p3eU" version="17.4.6" type="github">
  <diagram id="gHdk_dJ7GPB7kN7Cetbi" name="Page-1">
    <mxGraphModel dx="2372" dy="1642" grid="1" gridSize="10" guides="1" tooltips="1" connect="1" arrows="1" fold="1" page="1" pageScale="1" pageWidth="850" pageHeight="1100" math="1" shadow="0">
      <root>
        <mxCell id="0" />
        <mxCell id="1" parent="0" />
        <mxCell id="hyXVj247Z2iZGcptfuP--1" value="&lt;font style=&quot;font-size: 40px&quot;&gt;QUANTUM POTENTIAL&lt;br&gt;ENTROPIC VARIATION W.R.T.&lt;br&gt;OBSERVER&lt;br&gt;&lt;/font&gt;" style="text;html=1;align=center;verticalAlign=middle;resizable=0;points=[];autosize=1;strokeColor=none;fillColor=none;" vertex="1" parent="1">
          <mxGeometry x="-25" y="150" width="570" height="80" as="geometry" />
        </mxCell>
        <mxCell id="hyXVj247Z2iZGcptfuP--2" value="" style="rounded=1;whiteSpace=wrap;html=1;fontSize=40;fillColor=none;" vertex="1" parent="1">
          <mxGeometry x="-110" y="120" width="657.5" height="140" as="geometry" />
        </mxCell>
        <mxCell id="hyXVj247Z2iZGcptfuP--3" value="General Relativity" style="text;html=1;align=center;verticalAlign=middle;resizable=0;points=[];autosize=1;strokeColor=none;fillColor=none;fontSize=40;" vertex="1" parent="1">
          <mxGeometry x="65" y="380" width="330" height="50" as="geometry" />
        </mxCell>
        <mxCell id="hyXVj247Z2iZGcptfuP--4" value="Quantum Field&amp;nbsp;&lt;br&gt;Theory" style="text;html=1;align=center;verticalAlign=middle;resizable=0;points=[];autosize=1;strokeColor=none;fillColor=none;fontSize=40;" vertex="1" parent="1">
          <mxGeometry x="85" y="530" width="290" height="100" as="geometry" />
        </mxCell>
        <mxCell id="hyXVj247Z2iZGcptfuP--5" value="CLOSED TIMELIKE&lt;br&gt;CURVES" style="text;html=1;align=center;verticalAlign=middle;resizable=0;points=[];autosize=1;strokeColor=none;fillColor=none;fontSize=40;" vertex="1" parent="1">
          <mxGeometry x="45" y="710" width="370" height="100" as="geometry" />
        </mxCell>
        <mxCell id="hyXVj247Z2iZGcptfuP--6" value="SELF-SUSTAINING&lt;br&gt;COMPUTATION-MEASUREMENT&lt;br&gt;MEMBRANES" style="text;html=1;align=center;verticalAlign=middle;resizable=0;points=[];autosize=1;strokeColor=none;fillColor=none;fontSize=40;rotation=-90;" vertex="1" parent="1">
          <mxGeometry x="320" y="460" width="630" height="150" as="geometry" />
        </mxCell>
        <mxCell id="hyXVj247Z2iZGcptfuP--8" value="FABRIC&lt;br&gt;SCALING" style="text;html=1;align=center;verticalAlign=middle;resizable=0;points=[];autosize=1;strokeColor=none;fillColor=none;fontSize=30;rotation=-90;" vertex="1" parent="1">
          <mxGeometry x="420" y="305" width="150" height="80" as="geometry" />
        </mxCell>
        <mxCell id="hyXVj247Z2iZGcptfuP--9" value="" style="rounded=1;whiteSpace=wrap;html=1;fontSize=30;fillColor=none;" vertex="1" parent="1">
          <mxGeometry x="40" y="355" width="380" height="100" as="geometry" />
        </mxCell>
        <mxCell id="hyXVj247Z2iZGcptfuP--10" value="" style="rounded=1;whiteSpace=wrap;html=1;fontSize=30;fillColor=none;" vertex="1" parent="1">
          <mxGeometry x="40" y="530" width="380" height="100" as="geometry" />
        </mxCell>
        <mxCell id="hyXVj247Z2iZGcptfuP--11" value="" style="rounded=1;whiteSpace=wrap;html=1;fontSize=30;fillColor=none;" vertex="1" parent="1">
          <mxGeometry x="40" y="700" width="380" height="110" as="geometry" />
        </mxCell>
        <mxCell id="hyXVj247Z2iZGcptfuP--12" value="" style="rounded=1;whiteSpace=wrap;html=1;fontSize=30;fillColor=none;" vertex="1" parent="1">
          <mxGeometry x="447.5" y="265" width="95" height="160" as="geometry" />
        </mxCell>
        <mxCell id="hyXVj247Z2iZGcptfuP--13" value="" style="rounded=1;whiteSpace=wrap;html=1;fontSize=30;fillColor=none;rotation=90;" vertex="1" parent="1">
          <mxGeometry x="322.5" y="445" width="625" height="180" as="geometry" />
        </mxCell>
        <mxCell id="hyXVj247Z2iZGcptfuP--14" value="COMPUTATIONALLY-BOUNDED&lt;br&gt;UNCERTAINTY REDUCTION" style="text;html=1;align=center;verticalAlign=middle;resizable=0;points=[];autosize=1;strokeColor=none;fillColor=none;fontSize=30;rotation=-90;" vertex="1" parent="1">
          <mxGeometry x="-270" y="480" width="460" height="80" as="geometry" />
        </mxCell>
        <mxCell id="hyXVj247Z2iZGcptfuP--15" value="" style="rounded=1;whiteSpace=wrap;html=1;fontSize=30;fillColor=none;rotation=90;" vertex="1" parent="1">
          <mxGeometry x="-280" y="470" width="480" height="100" as="geometry" />
        </mxCell>
        <mxCell id="hyXVj247Z2iZGcptfuP--17" value="FREE&amp;nbsp; &amp;nbsp;ENERGY&amp;nbsp; &amp;nbsp;PRINCIPLE" style="text;html=1;align=center;verticalAlign=middle;resizable=0;points=[];autosize=1;strokeColor=none;fillColor=none;fontSize=40;rotation=-90;" vertex="1" parent="1">
          <mxGeometry x="-425" y="420" width="570" height="50" as="geometry" />
        </mxCell>
        <mxCell id="hyXVj247Z2iZGcptfuP--18" value="" style="rounded=1;whiteSpace=wrap;html=1;fontSize=40;fillColor=none;rotation=90;" vertex="1" parent="1">
          <mxGeometry x="-455" y="415" width="630" height="60" as="geometry" />
        </mxCell>
        <mxCell id="hyXVj247Z2iZGcptfuP--21" value="SILENT DURABLE&lt;br&gt;INACCESSIBLE&lt;br&gt;HIDDEN" style="text;html=1;align=center;verticalAlign=middle;resizable=0;points=[];autosize=1;strokeColor=none;fillColor=none;fontSize=15;rotation=-90;" vertex="1" parent="1">
          <mxGeometry x="-140" y="160" width="140" height="60" as="geometry" />
        </mxCell>
        <mxCell id="hyXVj247Z2iZGcptfuP--22" value="" style="shape=waypoint;sketch=0;fillStyle=solid;size=6;pointerEvents=1;points=[];fillColor=none;resizable=0;rotatable=0;perimeter=centerPerimeter;snapToPoint=1;fontSize=15;" vertex="1" parent="1">
          <mxGeometry x="-40" y="150" width="40" height="40" as="geometry" />
        </mxCell>
        <mxCell id="hyXVj247Z2iZGcptfuP--23" value="" style="endArrow=classic;html=1;rounded=0;fontSize=15;" edge="1" parent="1">
          <mxGeometry width="50" height="50" relative="1" as="geometry">
            <mxPoint x="-50" y="140" as="sourcePoint" />
            <mxPoint x="-20" y="170" as="targetPoint" />
          </mxGeometry>
        </mxCell>
        <mxCell id="hyXVj247Z2iZGcptfuP--24" value="" style="endArrow=classic;html=1;rounded=0;fontSize=15;" edge="1" parent="1">
          <mxGeometry width="50" height="50" relative="1" as="geometry">
            <mxPoint y="140" as="sourcePoint" />
            <mxPoint x="-20" y="170" as="targetPoint" />
          </mxGeometry>
        </mxCell>
        <mxCell id="hyXVj247Z2iZGcptfuP--25" value="" style="endArrow=classic;html=1;rounded=0;fontSize=15;" edge="1" parent="1">
          <mxGeometry width="50" height="50" relative="1" as="geometry">
            <mxPoint x="-40" y="180" as="sourcePoint" />
            <mxPoint x="-20" y="170" as="targetPoint" />
          </mxGeometry>
        </mxCell>
        <mxCell id="hyXVj247Z2iZGcptfuP--26" value="" style="endArrow=none;html=1;fontSize=15;curved=1;" edge="1" parent="1">
          <mxGeometry width="50" height="50" relative="1" as="geometry">
            <mxPoint x="-36" y="178" as="sourcePoint" />
            <mxPoint x="-5" y="150" as="targetPoint" />
            <Array as="points">
              <mxPoint x="-40" y="150" />
            </Array>
          </mxGeometry>
        </mxCell>
        <mxCell id="hyXVj247Z2iZGcptfuP--27" value="&lt;font style=&quot;font-size: 40px&quot;&gt;$$\mathbb{K}$$&lt;/font&gt;" style="text;html=1;align=center;verticalAlign=middle;resizable=0;points=[];autosize=1;strokeColor=none;fillColor=none;fontSize=15;" vertex="1" parent="1">
          <mxGeometry x="-260" y="850" width="300" height="30" as="geometry" />
        </mxCell>
        <mxCell id="hyXVj247Z2iZGcptfuP--28" value="-constraints" style="text;html=1;align=center;verticalAlign=middle;resizable=0;points=[];autosize=1;strokeColor=none;fillColor=none;fontSize=40;" vertex="1" parent="1">
          <mxGeometry x="-100" y="840" width="220" height="50" as="geometry" />
        </mxCell>
        <mxCell id="hyXVj247Z2iZGcptfuP--29" value="UNCERTAINTY&lt;br&gt;MINIMIZATION" style="text;html=1;align=center;verticalAlign=middle;resizable=0;points=[];autosize=1;strokeColor=none;fillColor=none;fontSize=40;" vertex="1" parent="1">
          <mxGeometry x="-130" y="1050" width="300" height="100" as="geometry" />
        </mxCell>
        <mxCell id="hyXVj247Z2iZGcptfuP--31" value="SOAP BUBBLES" style="text;html=1;align=center;verticalAlign=middle;resizable=0;points=[];autosize=1;strokeColor=none;fillColor=none;fontSize=40;" vertex="1" parent="1">
          <mxGeometry x="322.5" y="860" width="320" height="50" as="geometry" />
        </mxCell>
        <mxCell id="hyXVj247Z2iZGcptfuP--32" value="MEASUREMENT&lt;br&gt;PROBLEM" style="text;html=1;align=center;verticalAlign=middle;resizable=0;points=[];autosize=1;strokeColor=none;fillColor=none;fontSize=40;" vertex="1" parent="1">
          <mxGeometry x="395" y="1050" width="330" height="100" as="geometry" />
        </mxCell>
        <mxCell id="hyXVj247Z2iZGcptfuP--33" value="JOIN /&lt;br&gt;&amp;nbsp; &amp;nbsp; &amp;nbsp; &amp;nbsp; &amp;nbsp; &amp;nbsp; DROP" style="text;html=1;align=center;verticalAlign=middle;resizable=0;points=[];autosize=1;strokeColor=none;fillColor=none;fontSize=20;" vertex="1" parent="1">
          <mxGeometry x="175" y="960" width="140" height="50" as="geometry" />
        </mxCell>
        <mxCell id="hyXVj247Z2iZGcptfuP--34" value="FIELD&lt;br&gt;COMMITMENT&lt;br&gt;OF MUTATIONS" style="text;html=1;align=center;verticalAlign=middle;resizable=0;points=[];autosize=1;strokeColor=none;fillColor=none;fontSize=40;" vertex="1" parent="1">
          <mxGeometry x="-10" y="1270" width="310" height="150" as="geometry" />
        </mxCell>
        <mxCell id="hyXVj247Z2iZGcptfuP--36" value="&lt;font style=&quot;font-size: 30px&quot;&gt;The OBSERVER-PARTICLE&lt;br&gt;Model&lt;br&gt;&lt;/font&gt;" style="text;html=1;align=center;verticalAlign=middle;resizable=0;points=[];autosize=1;strokeColor=none;fillColor=none;fontSize=20;rotation=-90;" vertex="1" parent="1">
          <mxGeometry x="590" y="1000" width="400" height="60" as="geometry" />
        </mxCell>
        <mxCell id="hyXVj247Z2iZGcptfuP--37" value="&lt;font style=&quot;font-size: 40px&quot;&gt;FIELD of VIEW&lt;br&gt;&lt;div&gt;&lt;span&gt;FIELD of BRANCHING&lt;/span&gt;&lt;/div&gt;&lt;/font&gt;" style="text;html=1;align=left;verticalAlign=middle;resizable=0;points=[];autosize=1;strokeColor=none;fillColor=none;fontSize=30;" vertex="1" parent="1">
          <mxGeometry x="470" y="1280" width="420" height="80" as="geometry" />
        </mxCell>
        <mxCell id="hyXVj247Z2iZGcptfuP--38" value="&lt;strike&gt;e&lt;/strike&gt;" style="text;html=1;align=center;verticalAlign=middle;resizable=0;points=[];autosize=1;strokeColor=none;fillColor=none;fontSize=40;" vertex="1" parent="1">
          <mxGeometry x="447.5" y="1390" width="40" height="50" as="geometry" />
        </mxCell>
        <mxCell id="hyXVj247Z2iZGcptfuP--39" value="&lt;strike&gt;d&lt;/strike&gt;" style="text;html=1;align=center;verticalAlign=middle;resizable=0;points=[];autosize=1;strokeColor=none;fillColor=none;fontSize=40;" vertex="1" parent="1">
          <mxGeometry x="620" y="1390" width="40" height="50" as="geometry" />
        </mxCell>
        <mxCell id="hyXVj247Z2iZGcptfuP--41" value="EXPECTATION" style="text;html=1;align=center;verticalAlign=middle;resizable=0;points=[];autosize=1;strokeColor=none;fillColor=none;fontSize=20;" vertex="1" parent="1">
          <mxGeometry x="397.5" y="1440" width="150" height="30" as="geometry" />
        </mxCell>
        <mxCell id="hyXVj247Z2iZGcptfuP--42" value="DETERMINATION&lt;br&gt;DETECTIONS" style="text;html=1;align=center;verticalAlign=middle;resizable=0;points=[];autosize=1;strokeColor=none;fillColor=none;fontSize=20;" vertex="1" parent="1">
          <mxGeometry x="600" y="1440" width="180" height="50" as="geometry" />
        </mxCell>
        <mxCell id="hyXVj247Z2iZGcptfuP--43" value="" style="rounded=1;whiteSpace=wrap;html=1;fontSize=20;fillColor=none;" vertex="1" parent="1">
          <mxGeometry x="-145" y="835" width="275" height="60" as="geometry" />
        </mxCell>
        <mxCell id="hyXVj247Z2iZGcptfuP--44" value="" style="rounded=0;whiteSpace=wrap;html=1;fontSize=20;fillColor=none;" vertex="1" parent="1">
          <mxGeometry x="210" y="950" width="110" height="70" as="geometry" />
        </mxCell>
        <mxCell id="hyXVj247Z2iZGcptfuP--46" value="" style="ellipse;whiteSpace=wrap;html=1;fontSize=20;fillColor=none;" vertex="1" parent="1">
          <mxGeometry x="315" y="845" width="355" height="80" as="geometry" />
        </mxCell>
        <mxCell id="hyXVj247Z2iZGcptfuP--47" value="" style="rounded=1;whiteSpace=wrap;html=1;fontSize=20;fillColor=none;" vertex="1" parent="1">
          <mxGeometry x="377.5" y="1030" width="365" height="140" as="geometry" />
        </mxCell>
        <mxCell id="hyXVj247Z2iZGcptfuP--48" value="" style="rounded=1;whiteSpace=wrap;html=1;fontSize=20;fillColor=none;rotation=90;" vertex="1" parent="1">
          <mxGeometry x="585" y="985" width="410" height="90" as="geometry" />
        </mxCell>
        <mxCell id="hyXVj247Z2iZGcptfuP--49" value="" style="rounded=1;whiteSpace=wrap;html=1;fontSize=20;fillColor=none;" vertex="1" parent="1">
          <mxGeometry x="-140" y="1025" width="320" height="150" as="geometry" />
        </mxCell>
        <mxCell id="hyXVj247Z2iZGcptfuP--50" value="" style="rounded=1;whiteSpace=wrap;html=1;fontSize=20;fillColor=none;" vertex="1" parent="1">
          <mxGeometry x="-35" y="1235" width="355" height="220" as="geometry" />
        </mxCell>
        <mxCell id="hyXVj247Z2iZGcptfuP--51" value="" style="shape=waypoint;sketch=0;fillStyle=solid;size=6;pointerEvents=1;points=[];fillColor=none;resizable=0;rotatable=0;perimeter=centerPerimeter;snapToPoint=1;fontSize=20;strokeWidth=4;" vertex="1" parent="1">
          <mxGeometry x="525" y="760" width="40" height="40" as="geometry" />
        </mxCell>
        <mxCell id="hyXVj247Z2iZGcptfuP--52" value="" style="shape=waypoint;sketch=0;fillStyle=solid;size=6;pointerEvents=1;points=[];fillColor=none;resizable=0;rotatable=0;perimeter=centerPerimeter;snapToPoint=1;fontSize=20;strokeWidth=4;" vertex="1" parent="1">
          <mxGeometry x="472.5" y="826" width="40" height="40" as="geometry" />
        </mxCell>
        <mxCell id="hyXVj247Z2iZGcptfuP--53" value="" style="shape=waypoint;sketch=0;fillStyle=solid;size=6;pointerEvents=1;points=[];fillColor=none;resizable=0;rotatable=0;perimeter=centerPerimeter;snapToPoint=1;fontSize=20;strokeWidth=4;" vertex="1" parent="1">
          <mxGeometry x="650" y="865" width="40" height="40" as="geometry" />
        </mxCell>
        <mxCell id="hyXVj247Z2iZGcptfuP--54" value="" style="shape=waypoint;sketch=0;fillStyle=solid;size=6;pointerEvents=1;points=[];fillColor=none;resizable=0;rotatable=0;perimeter=centerPerimeter;snapToPoint=1;fontSize=20;strokeWidth=4;" vertex="1" parent="1">
          <mxGeometry x="725" y="920" width="40" height="40" as="geometry" />
        </mxCell>
        <mxCell id="hyXVj247Z2iZGcptfuP--55" value="" style="shape=waypoint;sketch=0;fillStyle=solid;size=6;pointerEvents=1;points=[];fillColor=none;resizable=0;rotatable=0;perimeter=centerPerimeter;snapToPoint=1;fontSize=20;strokeWidth=4;" vertex="1" parent="1">
          <mxGeometry x="297" y="865" width="40" height="40" as="geometry" />
        </mxCell>
        <mxCell id="hyXVj247Z2iZGcptfuP--56" value="" style="shape=waypoint;sketch=0;fillStyle=solid;size=6;pointerEvents=1;points=[];fillColor=none;resizable=0;rotatable=0;perimeter=centerPerimeter;snapToPoint=1;fontSize=20;strokeWidth=4;" vertex="1" parent="1">
          <mxGeometry x="220" y="791" width="40" height="40" as="geometry" />
        </mxCell>
        <mxCell id="hyXVj247Z2iZGcptfuP--57" value="" style="shape=waypoint;sketch=0;fillStyle=solid;size=6;pointerEvents=1;points=[];fillColor=none;resizable=0;rotatable=0;perimeter=centerPerimeter;snapToPoint=1;fontSize=20;strokeWidth=4;" vertex="1" parent="1">
          <mxGeometry x="300" y="965" width="40" height="40" as="geometry" />
        </mxCell>
        <mxCell id="hyXVj247Z2iZGcptfuP--58" value="" style="shape=waypoint;sketch=0;fillStyle=solid;size=6;pointerEvents=1;points=[];fillColor=none;resizable=0;rotatable=0;perimeter=centerPerimeter;snapToPoint=1;fontSize=20;strokeWidth=4;" vertex="1" parent="1">
          <mxGeometry x="420" y="1010" width="40" height="40" as="geometry" />
        </mxCell>
        <mxCell id="hyXVj247Z2iZGcptfuP--59" value="" style="shape=waypoint;sketch=0;fillStyle=solid;size=6;pointerEvents=1;points=[];fillColor=none;resizable=0;rotatable=0;perimeter=centerPerimeter;snapToPoint=1;fontSize=20;strokeWidth=4;" vertex="1" parent="1">
          <mxGeometry x="245" y="1000" width="40" height="40" as="geometry" />
        </mxCell>
        <mxCell id="hyXVj247Z2iZGcptfuP--60" value="" style="shape=waypoint;sketch=0;fillStyle=solid;size=6;pointerEvents=1;points=[];fillColor=none;resizable=0;rotatable=0;perimeter=centerPerimeter;snapToPoint=1;fontSize=20;strokeWidth=4;" vertex="1" parent="1">
          <mxGeometry x="385" y="1300" width="40" height="40" as="geometry" />
        </mxCell>
        <mxCell id="hyXVj247Z2iZGcptfuP--61" value="" style="shape=waypoint;sketch=0;fillStyle=solid;size=6;pointerEvents=1;points=[];fillColor=none;resizable=0;rotatable=0;perimeter=centerPerimeter;snapToPoint=1;fontSize=20;strokeWidth=4;" vertex="1" parent="1">
          <mxGeometry x="385" y="1385" width="40" height="40" as="geometry" />
        </mxCell>
        <mxCell id="hyXVj247Z2iZGcptfuP--62" value="" style="shape=waypoint;sketch=0;fillStyle=solid;size=6;pointerEvents=1;points=[];fillColor=none;resizable=0;rotatable=0;perimeter=centerPerimeter;snapToPoint=1;fontSize=20;strokeWidth=4;" vertex="1" parent="1">
          <mxGeometry x="120" y="1215" width="40" height="40" as="geometry" />
        </mxCell>
        <mxCell id="hyXVj247Z2iZGcptfuP--63" value="" style="shape=waypoint;sketch=0;fillStyle=solid;size=6;pointerEvents=1;points=[];fillColor=none;resizable=0;rotatable=0;perimeter=centerPerimeter;snapToPoint=1;fontSize=20;strokeWidth=4;" vertex="1" parent="1">
          <mxGeometry x="357" y="1083" width="40" height="40" as="geometry" />
        </mxCell>
        <mxCell id="hyXVj247Z2iZGcptfuP--64" value="" style="shape=waypoint;sketch=0;fillStyle=solid;size=6;pointerEvents=1;points=[];fillColor=none;resizable=0;rotatable=0;perimeter=centerPerimeter;snapToPoint=1;fontSize=20;strokeWidth=4;" vertex="1" parent="1">
          <mxGeometry x="-33" y="876" width="40" height="40" as="geometry" />
        </mxCell>
        <mxCell id="hyXVj247Z2iZGcptfuP--65" value="" style="shape=waypoint;sketch=0;fillStyle=solid;size=6;pointerEvents=1;points=[];fillColor=none;resizable=0;rotatable=0;perimeter=centerPerimeter;snapToPoint=1;fontSize=20;strokeWidth=4;" vertex="1" parent="1">
          <mxGeometry x="-160" y="1050" width="40" height="40" as="geometry" />
        </mxCell>
        <mxCell id="hyXVj247Z2iZGcptfuP--66" value="" style="shape=waypoint;sketch=0;fillStyle=solid;size=6;pointerEvents=1;points=[];fillColor=none;resizable=0;rotatable=0;perimeter=centerPerimeter;snapToPoint=1;fontSize=20;strokeWidth=4;" vertex="1" parent="1">
          <mxGeometry x="-190" y="720" width="40" height="40" as="geometry" />
        </mxCell>
        <mxCell id="hyXVj247Z2iZGcptfuP--67" value="" style="shape=waypoint;sketch=0;fillStyle=solid;size=6;pointerEvents=1;points=[];fillColor=none;resizable=0;rotatable=0;perimeter=centerPerimeter;snapToPoint=1;fontSize=20;strokeWidth=4;" vertex="1" parent="1">
          <mxGeometry x="-145" y="740" width="40" height="40" as="geometry" />
        </mxCell>
        <mxCell id="hyXVj247Z2iZGcptfuP--68" value="" style="shape=waypoint;sketch=0;fillStyle=solid;size=6;pointerEvents=1;points=[];fillColor=none;resizable=0;rotatable=0;perimeter=centerPerimeter;snapToPoint=1;fontSize=20;strokeWidth=4;" vertex="1" parent="1">
          <mxGeometry x="-100" y="740" width="40" height="40" as="geometry" />
        </mxCell>
        <mxCell id="hyXVj247Z2iZGcptfuP--69" value="" style="ellipse;whiteSpace=wrap;html=1;fontSize=20;strokeWidth=1;fillColor=none;" vertex="1" parent="1">
          <mxGeometry x="360" y="1375" width="460" height="145" as="geometry" />
        </mxCell>
        <mxCell id="hyXVj247Z2iZGcptfuP--70" value="" style="endArrow=none;html=1;fontSize=20;curved=1;strokeWidth=2;entryX=0.548;entryY=0.573;entryDx=0;entryDy=0;entryPerimeter=0;" edge="1" parent="1" source="hyXVj247Z2iZGcptfuP--67" target="hyXVj247Z2iZGcptfuP--68">
          <mxGeometry width="50" height="50" relative="1" as="geometry">
            <mxPoint x="-340" y="530" as="sourcePoint" />
            <mxPoint x="-290" y="480" as="targetPoint" />
            <Array as="points">
              <mxPoint x="-100" y="780" />
            </Array>
          </mxGeometry>
        </mxCell>
        <mxCell id="hyXVj247Z2iZGcptfuP--72" value="" style="endArrow=none;html=1;fontSize=20;strokeWidth=2;curved=1;entryX=0.033;entryY=0.402;entryDx=0;entryDy=0;entryPerimeter=0;" edge="1" parent="1" source="hyXVj247Z2iZGcptfuP--66" target="hyXVj247Z2iZGcptfuP--65">
          <mxGeometry width="50" height="50" relative="1" as="geometry">
            <mxPoint y="780" as="sourcePoint" />
            <mxPoint x="50" y="730" as="targetPoint" />
            <Array as="points">
              <mxPoint x="-200" y="990" />
            </Array>
          </mxGeometry>
        </mxCell>
        <mxCell id="hyXVj247Z2iZGcptfuP--73" value="" style="endArrow=classic;html=1;fontSize=20;strokeWidth=2;curved=1;exitX=0.497;exitY=0.616;exitDx=0;exitDy=0;exitPerimeter=0;entryX=0.423;entryY=0.005;entryDx=0;entryDy=0;entryPerimeter=0;" edge="1" parent="1" source="hyXVj247Z2iZGcptfuP--64" target="hyXVj247Z2iZGcptfuP--49">
          <mxGeometry width="50" height="50" relative="1" as="geometry">
            <mxPoint y="910" as="sourcePoint" />
            <mxPoint x="50" y="860" as="targetPoint" />
            <Array as="points">
              <mxPoint x="10" y="960" />
            </Array>
          </mxGeometry>
        </mxCell>
        <mxCell id="hyXVj247Z2iZGcptfuP--74" value="" style="endArrow=none;html=1;fontSize=20;strokeWidth=2;curved=1;entryX=1;entryY=0.5;entryDx=0;entryDy=0;exitX=0.381;exitY=0.021;exitDx=0;exitDy=0;exitPerimeter=0;" edge="1" parent="1" source="hyXVj247Z2iZGcptfuP--43" target="hyXVj247Z2iZGcptfuP--15">
          <mxGeometry width="50" height="50" relative="1" as="geometry">
            <mxPoint x="-40" y="830" as="sourcePoint" />
            <mxPoint x="50" y="730" as="targetPoint" />
          </mxGeometry>
        </mxCell>
        <mxCell id="hyXVj247Z2iZGcptfuP--75" value="" style="endArrow=none;html=1;fontSize=20;strokeWidth=2;curved=1;entryX=1;entryY=0.25;entryDx=0;entryDy=0;exitX=0.471;exitY=0.011;exitDx=0;exitDy=0;exitPerimeter=0;" edge="1" parent="1" source="hyXVj247Z2iZGcptfuP--43" target="hyXVj247Z2iZGcptfuP--15">
          <mxGeometry width="50" height="50" relative="1" as="geometry">
            <mxPoint x="-15" y="830" as="sourcePoint" />
            <mxPoint x="-19.339999999999772" y="760" as="targetPoint" />
          </mxGeometry>
        </mxCell>
        <mxCell id="hyXVj247Z2iZGcptfuP--76" value="" style="endArrow=none;html=1;fontSize=20;strokeWidth=2;curved=1;entryX=0.458;entryY=0.47;entryDx=0;entryDy=0;entryPerimeter=0;" edge="1" parent="1" source="hyXVj247Z2iZGcptfuP--56" target="hyXVj247Z2iZGcptfuP--55">
          <mxGeometry width="50" height="50" relative="1" as="geometry">
            <mxPoint x="320" y="780" as="sourcePoint" />
            <mxPoint x="370" y="730" as="targetPoint" />
            <Array as="points">
              <mxPoint x="240" y="880" />
            </Array>
          </mxGeometry>
        </mxCell>
        <mxCell id="hyXVj247Z2iZGcptfuP--77" value="" style="endArrow=none;html=1;fontSize=20;strokeWidth=2;curved=1;exitX=0.5;exitY=0;exitDx=0;exitDy=0;" edge="1" parent="1" source="hyXVj247Z2iZGcptfuP--46" target="hyXVj247Z2iZGcptfuP--51">
          <mxGeometry width="50" height="50" relative="1" as="geometry">
            <mxPoint x="320" y="780" as="sourcePoint" />
            <mxPoint x="370" y="730" as="targetPoint" />
            <Array as="points">
              <mxPoint x="480" y="780" />
            </Array>
          </mxGeometry>
        </mxCell>
        <mxCell id="hyXVj247Z2iZGcptfuP--78" value="" style="shape=waypoint;sketch=0;fillStyle=solid;size=6;pointerEvents=1;points=[];fillColor=none;resizable=0;rotatable=0;perimeter=centerPerimeter;snapToPoint=1;fontSize=20;strokeWidth=4;" vertex="1" parent="1">
          <mxGeometry x="340" y="890" width="40" height="40" as="geometry" />
        </mxCell>
        <mxCell id="hyXVj247Z2iZGcptfuP--79" value="" style="endArrow=none;html=1;fontSize=20;strokeWidth=2;curved=1;exitX=0.33;exitY=0.462;exitDx=0;exitDy=0;exitPerimeter=0;entryX=1;entryY=0;entryDx=0;entryDy=0;" edge="1" parent="1" source="hyXVj247Z2iZGcptfuP--78" target="hyXVj247Z2iZGcptfuP--44">
          <mxGeometry width="50" height="50" relative="1" as="geometry">
            <mxPoint x="320" y="820" as="sourcePoint" />
            <mxPoint x="370" y="770" as="targetPoint" />
            <Array as="points">
              <mxPoint x="350" y="940" />
            </Array>
          </mxGeometry>
        </mxCell>
        <mxCell id="hyXVj247Z2iZGcptfuP--80" value="" style="endArrow=none;html=1;fontSize=20;strokeWidth=2;curved=1;exitX=0.5;exitY=0.375;exitDx=0;exitDy=0;exitPerimeter=0;entryX=0.36;entryY=0.544;entryDx=0;entryDy=0;entryPerimeter=0;" edge="1" parent="1" source="hyXVj247Z2iZGcptfuP--57" target="hyXVj247Z2iZGcptfuP--58">
          <mxGeometry width="50" height="50" relative="1" as="geometry">
            <mxPoint x="320" y="910" as="sourcePoint" />
            <mxPoint x="370" y="860" as="targetPoint" />
            <Array as="points">
              <mxPoint x="400" y="970" />
            </Array>
          </mxGeometry>
        </mxCell>
        <mxCell id="hyXVj247Z2iZGcptfuP--81" value="" style="endArrow=none;html=1;fontSize=20;strokeWidth=2;curved=1;entryX=0.52;entryY=0.636;entryDx=0;entryDy=0;entryPerimeter=0;exitX=0.405;exitY=0.479;exitDx=0;exitDy=0;exitPerimeter=0;" edge="1" parent="1" source="hyXVj247Z2iZGcptfuP--54" target="hyXVj247Z2iZGcptfuP--53">
          <mxGeometry width="50" height="50" relative="1" as="geometry">
            <mxPoint x="570" y="910" as="sourcePoint" />
            <mxPoint x="620" y="860" as="targetPoint" />
            <Array as="points">
              <mxPoint x="730" y="885" />
            </Array>
          </mxGeometry>
        </mxCell>
        <mxCell id="hyXVj247Z2iZGcptfuP--82" value="" style="endArrow=none;html=1;fontSize=20;strokeWidth=2;curved=1;entryX=0.447;entryY=0.343;entryDx=0;entryDy=0;entryPerimeter=0;" edge="1" parent="1" source="hyXVj247Z2iZGcptfuP--62" target="hyXVj247Z2iZGcptfuP--63">
          <mxGeometry width="50" height="50" relative="1" as="geometry">
            <mxPoint x="360" y="1030" as="sourcePoint" />
            <mxPoint x="410" y="980" as="targetPoint" />
            <Array as="points">
              <mxPoint x="240" y="1100" />
            </Array>
          </mxGeometry>
        </mxCell>
        <mxCell id="hyXVj247Z2iZGcptfuP--83" value="" style="endArrow=classic;html=1;fontSize=20;strokeWidth=2;curved=1;exitX=0.562;exitY=0.467;exitDx=0;exitDy=0;exitPerimeter=0;" edge="1" parent="1" source="hyXVj247Z2iZGcptfuP--60">
          <mxGeometry width="50" height="50" relative="1" as="geometry">
            <mxPoint x="422.5" y="1315" as="sourcePoint" />
            <mxPoint x="472.5" y="1300" as="targetPoint" />
          </mxGeometry>
        </mxCell>
        <mxCell id="hyXVj247Z2iZGcptfuP--84" value="" style="endArrow=classic;html=1;fontSize=20;strokeWidth=2;curved=1;exitX=0.604;exitY=0.648;exitDx=0;exitDy=0;exitPerimeter=0;" edge="1" parent="1" source="hyXVj247Z2iZGcptfuP--60">
          <mxGeometry width="50" height="50" relative="1" as="geometry">
            <mxPoint x="420" y="1325" as="sourcePoint" />
            <mxPoint x="470" y="1340" as="targetPoint" />
          </mxGeometry>
        </mxCell>
        <mxCell id="hyXVj247Z2iZGcptfuP--85" value="" style="endArrow=none;html=1;fontSize=20;strokeWidth=2;curved=1;exitX=0.134;exitY=0.99;exitDx=0;exitDy=0;exitPerimeter=0;" edge="1" parent="1" source="hyXVj247Z2iZGcptfuP--59" target="hyXVj247Z2iZGcptfuP--61">
          <mxGeometry width="50" height="50" relative="1" as="geometry">
            <mxPoint x="390" y="1160" as="sourcePoint" />
            <mxPoint x="440" y="1110" as="targetPoint" />
            <Array as="points">
              <mxPoint x="280" y="1090" />
              <mxPoint x="330" y="1100" />
              <mxPoint x="300" y="1140" />
              <mxPoint x="340" y="1200" />
            </Array>
          </mxGeometry>
        </mxCell>
      </root>
    </mxGraphModel>
  </diagram>
</mxfile>
